<svg xmlns="http://www.w3.org/2000/svg" viewBox="0 0 48 48"><rect width="48" height="48" rx="10" fill="#5865F2"/><path d="M33 16s-3-2-7-2l-.4.8C29 15.6 31 16.8 33 18c-2-1-4-2-9-2s-7 1-9 2c2-1.2 4-2.4 7.4-3.2L22 14c-4 0-7 2-7 2S11 22 11 29c0 0 2 3 7 3l1.5-2c-2-.5-4-1.5-6-3 2 1 5 2 10.5 2s8.5-1 10.5-2c-2 1.5-4 2.5-6 3L30 32c5 0 7-3 7-3 0-7-4-13-4-13zm-13 11c-1.5 0-2.5-1-2.5-2.5S18.5 22 20 22s2.5 1 2.5 2.5S21.5 27 20 27zm8 0c-1.5 0-2.5-1-2.5-2.5S26.5 22 28 22s2.5 1 2.5 2.5S29.5 27 28 27z" fill="white"/></svg>
