<svg xmlns="http://www.w3.org/2000/svg" viewBox="0 0 48 48"><rect width="48" height="48" rx="10" fill="white"/><path d="M35.3 24.3c0-.8-.1-1.6-.2-2.3H24v4.4h6.3c-.3 1.5-1.1 2.7-2.3 3.5v2.9h3.7c2.2-2 3.6-5 3.6-8.5z" fill="#4285F4"/><path d="M24 36c3.2 0 5.8-1 7.7-2.8l-3.7-2.9c-1 .7-2.4 1.1-4 1.1-3 0-5.6-2-6.5-4.8H13.6v3c1.9 3.8 5.8 6.4 10.4 6.4z" fill="#34A853"/><path d="M17.5 26.6c-.2-.7-.4-1.5-.4-2.3s.1-1.6.4-2.3V19H13.6c-.8 1.6-1.3 3.4-1.3 5.3s.5 3.7 1.3 5.3l3.9-3z" fill="#FBBC05"/><path d="M24 16.6c1.7 0 3.2.6 4.4 1.7l3.3-3.3C29.8 13.1 27.2 12 24 12c-4.6 0-8.5 2.6-10.4 6.4l3.9 3c.9-2.8 3.5-4.8 6.5-4.8z" fill="#EA4335"/></svg>
